<?xml version="1.0" encoding="utf-8"?>
<svg xmlns="http://www.w3.org/2000/svg" viewBox="0 0 153 230.4" xml:space="preserve">
  <path d="M150.5,169.2c-17.3-6-28.3-9.9-33.2-11.8c-12.2-5.1-22.5-10.5-30.9-16.5h-2.8c-0.4,2.6-0.6,6-0.6,10.3
    c0,40.6,1,63.3,3.1,68.1c0.5,1.1,2.5,4.2,6.2,9.3c-3.6,0.7-7.4,1-11.5,1c-3.1,0-6.3-0.2-9.6-0.6v-87.5l-0.7-0.6h-1.3
    c-37.4,20.5-58.4,30.8-63,30.8c-2.3,0-3.5-1.2-3.5-3.7c0-1.9,8-7,23.9-15.5c6.7-3.5,15.5-11.1,26.6-22.8c12-12.8,18-22,18-27.8v-6
    c-0.5-0.5-1.1-0.7-2-0.6l-55.1,25.2l-1.1-1v-2.8c22-11.4,41-29.2,56.8-53.4c2.5-3.8,3.8-6.2,3.8-7v-9.1L73,46.6
    c-1,0.2-5.4,3-13.1,8.4c-5.4,3.8-16.5,9.9-33.2,18.3l-4.4-0.8l0.3-1.8c11.5-6.5,22.4-16,32.5-28.7C66.4,28.1,72.6,15.3,73.7,3.5
    L75.3,1h3.7c0,12,6,25.5,18,40.4c10.9,13.3,22.4,23.1,34.5,29.3l0.3,1.7c-0.5,0.7-1.4,1-2.7,1c-3.1,0-10.7-3.8-22.9-11.4
    c-10.2-6.4-17.8-11.5-22.6-15.3c-0.4,0.7-0.6,1.6-0.6,2.5c0,11,7,24.2,21,39.7c13,14.3,25.2,23.7,36.6,28.1l-1,3.7
    c-1.4-0.7-10.4-4.6-26.9-11.8c-10.9-4.7-19.6-9.1-26.2-13.4h-3c-0.3,0.3-0.4,0.9-0.4,2v1.5c0,10.4,8.7,23.6,26,39.5
    c16.1,14.7,30,23.8,41.5,27.1V169.2z"/>
</svg>
